<?xml version="1.0" encoding="utf-8" ?>
<svg xmlns="http://www.w3.org/2000/svg" xmlns:xlink="http://www.w3.org/1999/xlink" width="512" height="512">
	<path fill="#386641" transform="scale(0.666667 0.666667)" d="M-0 190.838L0 -0L768 0L768 153.47L768 215.941L768 270.659L768 278.303L768 295.163L768 304.085L768 324.009L768 334.23L768 357.691L768 768L-0 768L0 378.062L0 363.481L0 335.648L-0 324.418L0 303.373L0 292.538L0 280.508L0 269.12L0 219.032L0 190.838Z"/>
	<defs>
		<linearGradient id="gradient_0" gradientUnits="userSpaceOnUse" x1="223.69116" y1="482.09628" x2="198.42401" y2="482.47974">
			<stop offset="0" stop-color="#A4D657"/>
			<stop offset="1" stop-color="#C6E599"/>
		</linearGradient>
	</defs>
	<path fill="url(#gradient_0)" transform="scale(0.666667 0.666667)" d="M216.526 451.902L222.163 464.5C222.959 466.275 224.297 468.535 224.525 470.439L224.191 470.825C221.432 474.108 220.516 478.972 219.153 482.974L212.512 503.61C211.808 506.19 211.537 510.167 210.398 512.463L195.397 472.988L195.926 472.906C198.184 472.79 200.408 472.205 202.541 471.41C203.995 470.869 205.624 470.625 206.955 469.839L207.31 468.27L207.332 468.271L212.669 479.891C214.709 470.717 216.757 461.319 216.526 451.902Z"/>
	<path fill="#A7C957" transform="scale(0.666667 0.666667)" d="M229.476 485.594L247.497 529.122L244.874 533.327C236.297 549.023 244.993 567.98 249.556 583.398C246.095 578.618 243.911 573.025 241.442 567.697L231.06 544.875L226.587 534.537C225.925 532.902 224.92 530.99 224.769 529.23C224.552 526.69 225.177 523.745 225.499 521.216L227.308 506.529L229.476 485.594Z"/>
	<path fill="#A7C957" transform="scale(0.666667 0.666667)" d="M377.44 559.518L377.98 559.221C380.061 561.383 381.674 563.917 383.394 566.363L393.75 581.759C397.678 587.47 402.141 592.382 406.878 597.413C408.314 596.72 420.13 590.781 420.429 590.145L443.062 579.277C441.466 582.765 439.736 586.27 438.458 589.885C435.273 598.898 433.158 609.071 431.705 618.532C430.849 624.106 430.682 630.052 429.136 635.453L428.197 634.602C424.709 631.404 422.679 627.119 419.166 623.928C414.483 619.674 408.92 616.394 404.17 612.132C388.333 597.92 381.366 579.919 377.44 559.518Z"/>
	<path fill="#6A994E" transform="scale(0.666667 0.666667)" d="M130.306 311.919L133.461 319.454L142.991 342.073C136.006 343.904 128.504 344.609 121.353 345.64L88.5037 350.381L-0 363.481L0 335.648L-0 324.418L130.306 311.919Z"/>
	<path fill="#386641" transform="scale(0.666667 0.666667)" d="M130.306 311.919L133.461 319.454C127.358 321.766 119.392 321.796 112.875 322.531L75.8583 326.634L30.3516 332.099L0 335.648L-0 324.418L130.306 311.919Z"/>
	<path fill="#A7C957" transform="scale(0.666667 0.666667)" d="M17.3282 525.188C18.7396 524.908 19.7484 525.325 20.9681 526.014C25.8422 528.767 30.4342 533.459 34.6333 537.199L51.5224 551.864C75.662 571.926 100.748 590.658 127.742 606.721C138.695 613.239 149.737 619.498 161.438 624.598C173.203 629.727 185.626 633.152 197.602 637.761L191.812 637.812L156.911 637.34C151.273 636.905 145.705 635.55 140.163 634.481C127.458 632.029 114.525 628.672 102.476 623.916C90.2312 619.083 78.2716 612.58 67.1025 605.612C51.4768 595.863 37.6257 584.824 25.7205 570.719C17.0626 560.462 11.5079 550.455 12.7718 536.684C13.1313 532.766 14.1742 527.806 17.3282 525.188Z"/>
	<path fill="#6A994E" transform="scale(0.666667 0.666667)" d="M-0 269.12L95.2986 264.736C99.6126 267.31 103.49 270.25 107.216 273.615C110.745 276.635 113.968 280.52 116.511 284.41L122.129 293.321C125.58 298.819 128.116 305.815 130.306 311.919L-0 324.418L0 303.373L0 292.538L0 280.508L0 269.12Z"/>
	<path fill="#386641" transform="scale(0.666667 0.666667)" d="M-0 292.538L74.25 287.66L96.8438 286.315C103.344 285.955 110.152 285.838 116.511 284.41L122.129 293.321C121.724 293.69 121.431 293.869 120.883 293.954C113.302 295.13 105.345 295.491 97.6875 296.024L72.8132 297.865L-0 303.373L0 292.538Z"/>
	<path fill="#6A994E" transform="scale(0.666667 0.666667)" d="M-0 269.12L95.2986 264.736C99.6126 267.31 103.49 270.25 107.216 273.615C110.745 276.635 113.968 280.52 116.511 284.41C110.152 285.838 103.344 285.955 96.8438 286.315L74.25 287.66L-0 292.538L0 280.508L0 269.12Z"/>
	<path fill="#386641" transform="scale(0.666667 0.666667)" d="M-0 269.12L95.2986 264.736C99.6126 267.31 103.49 270.25 107.216 273.615C106.469 274.133 105.912 274.242 105.025 274.319L94.9466 274.727L44.0625 277.7C29.4386 278.5 14.6256 280.356 -0 280.508L0 269.12Z"/>
	<path fill="#A7C957" transform="scale(0.666667 0.666667)" d="M91.6799 387.938L92.8125 387.889C103.223 396.511 111.447 407.791 119.137 418.794L132.369 438.126L144.678 459.905C148.798 467.634 153.016 475.622 156.502 483.647L165.711 507.614L174.71 528.289L185.43 554.835L196.623 581.79C198.776 586.751 201.343 591.68 203.202 596.742L202.418 596.812C190.356 588.154 178.717 578.35 168.46 567.581C161.462 560.233 155.135 552.298 148.661 544.496L129.086 519.936C110.901 494.981 96.2841 464.852 91.9258 434.062C90.6286 424.898 90.2468 415.35 90.4875 406.099C90.6444 400.071 90.7448 393.901 91.6799 387.938Z"/>
	<path fill="#386641" transform="scale(0.666667 0.666667)" d="M149.439 492.251C152.27 495.808 153.993 499.938 155.658 504.135C160.623 516.655 163.114 530.191 164.102 543.601C161.649 540.012 159.818 536.088 157.916 532.194C153.826 523.819 149.917 514.379 148.88 505.059C148.386 500.617 148.748 496.641 149.439 492.251Z"/>
	<defs>
		<linearGradient id="gradient_1" gradientUnits="userSpaceOnUse" x1="714.35638" y1="534.4668" x2="630.43677" y2="500.11255">
			<stop offset="0" stop-color="#4B9938"/>
			<stop offset="1" stop-color="#326868"/>
		</linearGradient>
	</defs>
	<path fill="url(#gradient_1)" transform="scale(0.666667 0.666667)" d="M735.642 414.188C736.185 414.095 736.69 414.004 737.235 414.162C739.167 414.722 740.671 417.355 741.542 419.006C748.714 432.601 747.477 449.647 743.191 463.882C738.101 480.788 730.394 495.828 720.853 510.651C712.549 523.554 703.731 536.008 692.887 546.938C688.255 551.606 683.085 555.753 678.005 559.917C668.353 567.828 658.224 575.459 647.625 582.059L627.188 593.92L614.799 601.664L591.938 613.898L590.812 614.281L590.345 613.688C591.451 605.601 591.937 597.417 594.023 589.5C596.607 579.688 601.784 569.41 609.126 562.285C612.798 558.721 617.281 555.829 621.575 553.074L642.375 540.389C649.614 535.877 656.69 530.518 663.04 524.818C665.967 522.191 667.677 518.651 669.553 515.259C673.345 508.403 677.06 500.623 682.889 495.282C683.529 498.915 683.423 502.083 683.386 505.721C684.394 502.183 685.184 498.719 686.628 495.316C692.672 481.074 699.718 467.039 707.321 453.571C713.002 443.508 718.833 433.748 725.736 424.47C728.259 421.08 731.659 415.784 735.642 414.188Z"/>
	<path fill="#386641" transform="scale(0.666667 0.666667)" d="M724.844 448.653C722.026 470.454 717.485 490.983 706.663 510.314C704.103 514.887 701.678 519.311 698.133 523.213L704.526 504.221L711.754 480.75C715.493 469.741 719.996 459.202 724.844 448.653Z"/>
	<path fill="#A7C957" transform="scale(0.666667 0.666667)" d="M23.4337 410.812C23.9976 410.562 24.4902 410.413 25.125 410.467C27.5245 410.672 31.244 413.38 33.1875 414.726C45.6914 423.383 57.097 434.439 67.3256 445.63C76.9501 456.16 85.8205 467.7 93.6505 479.629C98.0324 486.305 102.37 492.923 104.56 500.693C106.063 506.024 105.874 510.493 105.81 515.92C105.763 519.911 114.322 529.9 117.04 533.625C128.348 549.124 141.885 562.791 156.316 575.379C176.552 593.031 198.469 608.467 221.122 622.849L234.935 630.951L243.75 635.205C245.312 635.913 247.591 636.597 248.812 637.806L246.469 637.87L220.967 637.604C216.734 637.558 211.911 637.946 207.763 637.182C199.136 635.595 190.469 630.704 182.677 626.73C157.737 614.011 133.47 599.636 111.435 582.293C90.1759 565.559 70.3457 546.798 54.5277 524.735C49.0089 517.038 44.2176 508.855 39.6614 500.563C29.5662 482.189 22.5085 463.334 20.0601 442.4C19.1351 434.491 18.3621 417.236 23.4337 410.812Z"/>
	<path fill="#386641" transform="scale(0.666667 0.666667)" d="M51.3027 467.414C61.0106 475.189 68.1512 490.076 71.4719 501.875C73.3906 508.692 74.3788 515.721 75.8188 522.643L74.4079 521.27C71.736 518.477 69.2691 515.124 66.9846 512.01C57.14 498.594 50.9221 484.269 51.3027 467.414Z"/>
	<path fill="#FCFFFD" transform="scale(0.666667 0.666667)" d="M95.2986 264.736C92.3763 262.992 89.4546 261.273 86.4023 259.764C82.5636 257.866 77.7331 256.314 74.6211 253.327C72.1366 250.942 71.5225 248.2 71.5314 244.884C71.5385 242.216 72.4731 239.554 74.4265 237.677C75.7776 236.379 77.1185 235.961 78.9597 235.848C89.8319 235.183 101.192 235.836 112.111 235.848L179.313 235.903L229.547 235.912L243.973 235.824C246.52 235.8 249.289 235.571 251.817 235.808C253.152 235.932 254.054 236.688 254.8 237.742C255.926 239.332 256.065 241.353 255.731 243.233C255.232 246.043 253.824 248.749 252.693 251.354C250.673 256.004 249.638 260.316 249.585 265.413L249.598 265.419C249.714 265.173 249.742 264.861 249.946 264.681C250.823 263.904 308.667 264.171 314.373 264.17L329.156 264.164C331.629 264.164 334.929 264.57 337.128 263.365C341.543 265.582 345.625 267.969 349.269 271.344C353.62 274.66 358.493 280.023 361.22 284.718L365.132 291.884L369.174 300.775C374.831 310.66 378.287 322.301 382.358 332.934L392.08 356.902C391.681 357.72 391.495 358.352 391.302 359.25C389.925 365.644 387.28 371.952 385.194 378.152L369.291 423.134L361.144 447.668L348.188 487.459L343.979 500.697C342.337 505.601 340.5 510.494 340.459 515.743C340.704 516.861 340.594 517.637 340.29 518.739C339.54 521.463 338.253 524.18 337.248 526.829L332.236 541.064L319.596 582.636L310.007 609.349L301.947 635.629L289.842 635.627L247.497 529.122L229.476 485.594C228.585 480.262 226.95 475.265 224.525 470.439C224.297 468.535 222.959 466.275 222.163 464.5L216.526 451.902C216.757 461.319 214.709 470.717 212.669 479.891L207.332 468.271L207.31 468.27L206.955 469.839C205.624 470.625 203.995 470.869 202.541 471.41C200.408 472.205 198.184 472.79 195.926 472.906L195.397 472.988L147.178 352.509L142.991 342.073L133.461 319.454L130.306 311.919C128.116 305.815 125.58 298.819 122.129 293.321L116.511 284.41C113.968 280.52 110.745 276.635 107.216 273.615C103.49 270.25 99.6126 267.31 95.2986 264.736Z"/>
	<path fill="#386641" transform="scale(0.666667 0.666667)" d="M207.31 468.27L204.785 461.807C199.419 445.659 196.033 426.68 203.976 410.734C204.741 411.732 205.077 413.57 205.461 414.78L208.463 424.875L216.526 451.902C216.757 461.319 214.709 470.717 212.669 479.891L207.332 468.271L207.31 468.27Z"/>
	<path fill="#A7C957" transform="scale(0.666667 0.666667)" d="M249.598 265.419C249.714 265.173 249.742 264.861 249.946 264.681C250.823 263.904 308.667 264.171 314.373 264.17L329.156 264.164C331.629 264.164 334.929 264.57 337.128 263.365C341.543 265.582 345.625 267.969 349.269 271.344C353.62 274.66 358.493 280.023 361.22 284.718L365.132 291.884L369.174 300.775C374.831 310.66 378.287 322.301 382.358 332.934L392.08 356.902C391.681 357.72 391.495 358.352 391.302 359.25C389.925 365.644 387.28 371.952 385.194 378.152L369.291 423.134L361.144 447.668L348.188 487.459L343.979 500.697C342.337 505.601 340.5 510.494 340.459 515.743C337.825 507.451 335.275 499.08 331.44 491.246C330.253 488.822 329.075 486.182 327.126 484.276L326.993 484.075C323.731 479.295 321.907 472.679 319.88 467.227L310.62 441.917L303.701 423.928L300.842 416.157L281.668 363.391L277.255 350.539C277.061 350.426 277.061 350.133 276.984 349.922L265.769 319.771L262.994 312.255L257.22 296.061L254.654 287.947C252.616 283.339 251.708 277.845 250.438 272.951C249.871 270.424 249.7 268.004 249.598 265.419Z"/>
	<path fill="#386641" transform="scale(0.666667 0.666667)" d="M277.255 350.539L278.062 349.889L325.579 348.278L343.639 347.327C345.721 347.219 348.008 346.786 350.062 346.896C350.525 346.921 350.853 347.049 351.282 347.208L346.223 361.981L337.424 386.625L328.618 409.782C327.889 411.868 326.39 415.118 326.68 417.292L326.994 417.274C332.238 416.937 337.201 415.274 341.709 419.205C342.13 419.571 342.201 420.049 342.397 420.562C341.659 425.245 339.854 430.007 338.56 434.58L331.486 461.079L328.596 474.549C328.107 477.505 328.221 481.542 327.126 484.276L326.993 484.075C323.731 479.295 321.907 472.679 319.88 467.227L310.62 441.917L303.701 423.928L300.842 416.157L281.668 363.391L277.255 350.539Z"/>
	<defs>
		<linearGradient id="gradient_2" gradientUnits="userSpaceOnUse" x1="306.78836" y1="432.47836" x2="318.54263" y2="426.22482">
			<stop offset="0" stop-color="#41863A"/>
			<stop offset="1" stop-color="#65A846"/>
		</linearGradient>
	</defs>
	<path fill="url(#gradient_2)" transform="scale(0.666667 0.666667)" d="M303.701 423.928L319.363 423.879C315.509 429.578 313.059 435.528 310.62 441.917L303.701 423.928Z"/>
	<path fill="#6A994E" transform="scale(0.666667 0.666667)" d="M249.598 265.419C249.714 265.173 249.742 264.861 249.946 264.681C250.823 263.904 308.667 264.171 314.373 264.17L329.156 264.164C331.629 264.164 334.929 264.57 337.128 263.365C341.543 265.582 345.625 267.969 349.269 271.344C353.62 274.66 358.493 280.023 361.22 284.718L365.132 291.884L369.174 300.775C368.62 302.417 368.113 304.061 367.325 305.61L363.648 315.412L356.024 334.639L352.812 343.44C352.409 344.565 351.995 346.295 351.282 347.208C350.853 347.049 350.525 346.921 350.062 346.896C348.008 346.786 345.721 347.219 343.639 347.327L325.579 348.278L278.062 349.889L277.255 350.539C277.061 350.426 277.061 350.133 276.984 349.922L265.769 319.771L262.994 312.255L257.22 296.061L254.654 287.947C252.616 283.339 251.708 277.845 250.438 272.951C249.871 270.424 249.7 268.004 249.598 265.419Z"/>
	<path fill="#386641" transform="scale(0.666667 0.666667)" d="M262.994 312.255L263.328 311.356C266.121 310.309 270.054 310.636 273.052 310.487L293.066 309.6L347.966 306.782L360.756 305.881C362.878 305.715 365.219 305.231 367.325 305.61L363.648 315.412L265.769 319.771L262.994 312.255Z"/>
	<path fill="#386641" transform="scale(0.666667 0.666667)" d="M254.654 287.947C254.944 287.605 255.235 287.32 255.562 287.016C258.744 285.943 263.661 286.564 267.064 286.512L289.59 286.032L337.13 285.044C345.148 284.889 353.202 284.253 361.22 284.718L365.132 291.884C364.295 292.727 363.571 292.846 362.444 292.966C352.346 294.038 341.681 293.572 331.5 293.85L257.22 296.061L254.654 287.947Z"/>
	<path fill="#6A994E" transform="scale(0.666667 0.666667)" d="M249.598 265.419C249.714 265.173 249.742 264.861 249.946 264.681C250.823 263.904 308.667 264.171 314.373 264.17L329.156 264.164C331.629 264.164 334.929 264.57 337.128 263.365C341.543 265.582 345.625 267.969 349.269 271.344C353.62 274.66 358.493 280.023 361.22 284.718C353.202 284.253 345.148 284.889 337.13 285.044L289.59 286.032L267.064 286.512C263.661 286.564 258.744 285.943 255.562 287.016C255.235 287.32 254.944 287.605 254.654 287.947C252.616 283.339 251.708 277.845 250.438 272.951C249.871 270.424 249.7 268.004 249.598 265.419Z"/>
	<path fill="#386641" transform="scale(0.666667 0.666667)" d="M249.598 265.419C249.714 265.173 249.742 264.861 249.946 264.681C250.823 263.904 308.667 264.171 314.373 264.17L329.156 264.164C331.629 264.164 334.929 264.57 337.128 263.365C341.543 265.582 345.625 267.969 349.269 271.344L250.438 272.951C249.871 270.424 249.7 268.004 249.598 265.419Z"/>
	<path fill="#6A994E" transform="scale(0.666667 0.666667)" d="M265.769 319.771L363.648 315.412L356.024 334.639L352.812 343.44C352.409 344.565 351.995 346.295 351.282 347.208C350.853 347.049 350.525 346.921 350.062 346.896C348.008 346.786 345.721 347.219 343.639 347.327L325.579 348.278L278.062 349.889L277.255 350.539C277.061 350.426 277.061 350.133 276.984 349.922L265.769 319.771Z"/>
	<path fill="#FCFFFD" transform="scale(0.666667 0.666667)" d="M577.931 268.941C577.68 267.989 577.351 267.115 576.947 266.219C574.078 259.869 569.559 257.556 563.329 255.159C558.924 253.465 555.707 251.814 553.795 247.174C552.882 244.958 552.623 241.793 553.671 239.582C554.472 237.895 555.855 236.418 557.697 235.911C560.557 235.124 564.954 235.642 567.969 235.645L590.183 235.62L664.116 235.569L698.062 235.466C699.262 235.483 700.503 235.375 701.527 236.04C703.521 237.336 704.692 239.553 705.108 241.859C705.715 245.217 703.639 248.564 701.88 251.246C696.566 256.394 689.857 259.529 684.132 264.182C680.785 266.998 677.486 269.887 674.723 273.295C671.063 277.526 667.477 282.265 665.04 287.323L660.438 296.282L652.079 316.504L648.49 327.441L639.866 350.962L540.424 635.907L516.809 635.909C512.863 635.965 508.678 635.76 504.784 636.296L392.08 356.902L382.358 332.934C378.287 322.301 374.831 310.66 369.174 300.775L365.132 291.884L361.22 284.718C358.493 280.023 353.62 274.66 349.269 271.344C345.625 267.969 341.543 265.582 337.128 263.365L327.127 259.308C323.314 257.928 318.77 256.748 315.864 253.768C313.378 251.219 312.331 247.543 312.398 244.034C312.443 241.624 313.317 239.005 315.152 237.353C316.332 236.292 317.353 235.962 318.925 235.848C327.851 235.2 337.245 235.797 346.211 235.802L402.5 235.853L442.067 235.901C447.649 235.909 454.047 235.299 459.565 235.966C460.83 236.119 461.879 236.974 462.617 237.97C463.581 239.273 463.851 241.055 463.572 242.623C463.049 245.558 461.707 248.434 460.709 251.232C458.995 256.036 458.306 261.365 458.789 266.449L577.931 268.941Z"/>
	<path fill="#386641" transform="scale(0.666667 0.666667)" d="M458.789 266.449L577.931 268.941C578.622 271.71 578.785 274.286 578.321 277.116L575.21 288.015L572.098 297.062L566.556 314.182C565.791 316.862 564.715 319.701 564.223 322.427L555.669 350.667L552.643 360.316L535.858 415.098L532.672 426.342C531.536 429.36 530.847 432.757 529.972 435.875L524.549 456.636L514.656 425.99L510.792 414.814L492.23 364.294L488.302 353.213L476.341 318.455L473.665 310.809L467.544 294.533L464.695 286.172C464.199 285.445 463.859 283.787 463.558 282.915L460.698 274.281L458.789 266.449Z"/>
	<path fill="#A7C957" transform="scale(0.666667 0.666667)" d="M-0 190.838L0 -0L768 0L768 153.47L768 215.941L768 270.659L708.186 267L695.897 266.195C692.168 265.946 687.38 266.188 684.132 264.182C689.857 259.529 696.566 256.394 701.88 251.246C703.639 248.564 705.715 245.217 705.108 241.859C704.692 239.553 703.521 237.336 701.527 236.04C700.503 235.375 699.262 235.483 698.062 235.466L664.116 235.569L590.183 235.62L567.969 235.645C564.954 235.642 560.557 235.124 557.697 235.911C555.855 236.418 554.472 237.895 553.671 239.582C552.623 241.793 552.882 244.958 553.795 247.174C555.707 251.814 558.924 253.465 563.329 255.159C569.559 257.556 574.078 259.869 576.947 266.219C577.351 267.115 577.68 267.989 577.931 268.941L458.789 266.449C458.306 261.365 458.995 256.036 460.709 251.232C461.707 248.434 463.049 245.558 463.572 242.623C463.851 241.055 463.581 239.273 462.617 237.97C461.879 236.974 460.83 236.119 459.565 235.966C454.047 235.299 447.649 235.909 442.067 235.901L402.5 235.853L346.211 235.802C337.245 235.797 327.851 235.2 318.925 235.848C317.353 235.962 316.332 236.292 315.152 237.353C313.317 239.005 312.443 241.624 312.398 244.034C312.331 247.543 313.378 251.219 315.864 253.768C318.77 256.748 323.314 257.928 327.127 259.308L337.128 263.365C334.929 264.57 331.629 264.164 329.156 264.164L314.373 264.17C308.667 264.171 250.823 263.904 249.946 264.681C249.742 264.861 249.714 265.173 249.598 265.419L249.585 265.413C249.638 260.316 250.673 256.004 252.693 251.354C253.824 248.749 255.232 246.043 255.731 243.233C256.065 241.353 255.926 239.332 254.8 237.742C254.054 236.688 253.152 235.932 251.817 235.808C249.289 235.571 246.52 235.8 243.973 235.824L229.547 235.912L179.313 235.903L112.111 235.848C101.192 235.836 89.8319 235.183 78.9597 235.848C77.1185 235.961 75.7776 236.379 74.4265 237.677C72.4731 239.554 71.5385 242.216 71.5314 244.884C71.5225 248.2 72.1366 250.942 74.6211 253.327C77.7331 256.314 82.5636 257.866 86.4023 259.764C89.4546 261.273 92.3763 262.992 95.2986 264.736L-0 269.12L0 219.032L0 190.838Z"/>
	<path fill="#386641" transform="scale(0.666667 0.666667)" d="M768 153.47L768 215.941L-0 219.032L0 190.838L194.057 187.501L574.242 187.921C577.09 187.103 579.734 185.513 582.368 184.179L589.941 180.776C600.684 176.243 611.947 172.281 623.128 169.001C669.597 155.364 719.896 154.449 768 153.47Z"/>
	<defs>
		<linearGradient id="gradient_3" gradientUnits="userSpaceOnUse" x1="705.89386" y1="88.610909" x2="63.49712" y2="399.90833">
			<stop offset="0" stop-color="#3B7D3B"/>
			<stop offset="1" stop-color="#78B147"/>
		</linearGradient>
	</defs>
	<path fill="url(#gradient_3)" transform="scale(0.666667 0.666667)" d="M-0 219.032L768 215.941L768 270.659L708.186 267L695.897 266.195C692.168 265.946 687.38 266.188 684.132 264.182C689.857 259.529 696.566 256.394 701.88 251.246C703.639 248.564 705.715 245.217 705.108 241.859C704.692 239.553 703.521 237.336 701.527 236.04C700.503 235.375 699.262 235.483 698.062 235.466L664.116 235.569L590.183 235.62L567.969 235.645C564.954 235.642 560.557 235.124 557.697 235.911C555.855 236.418 554.472 237.895 553.671 239.582C552.623 241.793 552.882 244.958 553.795 247.174C555.707 251.814 558.924 253.465 563.329 255.159C569.559 257.556 574.078 259.869 576.947 266.219C577.351 267.115 577.68 267.989 577.931 268.941L458.789 266.449C458.306 261.365 458.995 256.036 460.709 251.232C461.707 248.434 463.049 245.558 463.572 242.623C463.851 241.055 463.581 239.273 462.617 237.97C461.879 236.974 460.83 236.119 459.565 235.966C454.047 235.299 447.649 235.909 442.067 235.901L402.5 235.853L346.211 235.802C337.245 235.797 327.851 235.2 318.925 235.848C317.353 235.962 316.332 236.292 315.152 237.353C313.317 239.005 312.443 241.624 312.398 244.034C312.331 247.543 313.378 251.219 315.864 253.768C318.77 256.748 323.314 257.928 327.127 259.308L337.128 263.365C334.929 264.57 331.629 264.164 329.156 264.164L314.373 264.17C308.667 264.171 250.823 263.904 249.946 264.681C249.742 264.861 249.714 265.173 249.598 265.419L249.585 265.413C249.638 260.316 250.673 256.004 252.693 251.354C253.824 248.749 255.232 246.043 255.731 243.233C256.065 241.353 255.926 239.332 254.8 237.742C254.054 236.688 253.152 235.932 251.817 235.808C249.289 235.571 246.52 235.8 243.973 235.824L229.547 235.912L179.313 235.903L112.111 235.848C101.192 235.836 89.8319 235.183 78.9597 235.848C77.1185 235.961 75.7776 236.379 74.4265 237.677C72.4731 239.554 71.5385 242.216 71.5314 244.884C71.5225 248.2 72.1366 250.942 74.6211 253.327C77.7331 256.314 82.5636 257.866 86.4023 259.764C89.4546 261.273 92.3763 262.992 95.2986 264.736L-0 269.12L0 219.032Z"/>
</svg>
