<?xml version="1.0" encoding="utf-8" ?>
<svg xmlns="http://www.w3.org/2000/svg" xmlns:xlink="http://www.w3.org/1999/xlink" width="512" height="511">
	<path fill="#386641" d="M427.598 88.9457L79.9599 88.8222C79.6967 85.1488 79.8013 81.4376 79.7996 77.755L79.8176 47.75C79.8228 44.7243 79.6651 41.5949 80.2382 38.6134L427.532 38.6873C427.891 39.6993 427.695 41.226 427.698 42.3314L427.598 88.9457Z"/>
	<path fill="#386641" d="M320.39 380.937L258.375 225.286C257.847 224.077 257.405 222.709 256.701 221.594C253.297 231.212 248.75 240.488 244.993 249.988L156.956 463.522C154.449 469.326 148.019 473.012 143.912 467.146C142.163 464.648 141.289 461.372 140.3 458.52L104.242 358.709L47.9296 210.521C46.3768 207.051 42.9976 200.239 50.3836 199.62C53.226 199.382 56.204 199.564 59.0667 199.561L91.4485 199.582C93.7971 199.59 98.5026 198.588 99.9566 200.937C102.875 205.653 104.775 210.631 106.739 215.802L149.179 327.053C150.394 330.566 151.435 334.246 153.201 337.528L222.345 171.484C216.861 170.814 210.826 171.279 205.277 171.277L33.5 171.268C24.4716 171.205 26.2599 162.051 26.2491 155.717L26.2443 129.456C26.2509 124.823 26.4913 121.574 31.2283 119.297L480.261 119.444C487.13 119.751 485.75 129.054 485.758 133.696L485.762 159.711C485.757 163.507 486.446 170.856 480.942 171.25C474.716 171.697 468.172 171.273 461.908 171.273L291.423 171.355C292.769 172.734 292.936 174.622 293.672 176.339L350.058 315.163C352.954 322.714 356.466 330.226 358.959 337.899L359.053 338.195C361.568 329.796 365.129 321.842 368.24 313.662L409.027 206.75C411.067 202.122 412.589 199.684 418.013 199.582L444.957 199.552C448.643 199.554 461.442 198.248 464.067 200.889L464.293 201.125C467.777 204.667 465.012 209.262 463.318 213.1L406.651 359.981L368.847 463.491C367.899 465.862 366.764 467.803 364.304 468.836C354.918 472.776 352.704 462.453 350.17 456.018L320.39 380.937Z"/>
</svg>
